<svg xmlns="http://www.w3.org/2000/svg" version="1.1" xmlns:xlink="http://www.w3.org/1999/xlink" xmlns:svgjs="http://svgjs.com/svgjs" width="1440" height="560" preserveAspectRatio="none" viewBox="0 0 1440 560"><g mask="url(&quot;#SvgjsMask1104&quot;)" fill="none"><path d="M 0,56 C 19.2,91.6 57.6,233.2 96,234 C 134.4,234.8 153.6,58 192,60 C 230.4,62 249.6,232.8 288,244 C 326.4,255.2 345.6,136 384,116 C 422.4,96 441.6,165.6 480,144 C 518.4,122.4 537.6,-3.8 576,8 C 614.4,19.8 633.6,190.8 672,203 C 710.4,215.2 729.6,71.2 768,69 C 806.4,66.8 825.6,197.4 864,192 C 902.4,186.6 921.6,26.4 960,42 C 998.4,57.6 1017.6,253.8 1056,270 C 1094.4,286.2 1113.6,136 1152,123 C 1190.4,110 1209.6,213.2 1248,205 C 1286.4,196.8 1305.6,88.8 1344,82 C 1382.4,75.2 1420.8,153.2 1440,171L1440 560L0 560z" fill="rgba(255, 255, 255, 1)"></path><path d="M 0,474 C 96,436.8 288,287 480,288 C 672,289 768,474.8 960,479 C 1152,483.2 1344,343 1440,309L1440 560L0 560z" fill="rgba(184, 212, 217, 1)"></path></g><defs><mask id="SvgjsMask1104"><rect width="1440" height="560" fill="#ffffff"></rect></mask></defs></svg>