<svg xmlns="http://www.w3.org/2000/svg" version="1.1" xmlns:xlink="http://www.w3.org/1999/xlink" xmlns:svgjs="http://svgjs.com/svgjs" width="1440" height="560" preserveAspectRatio="none" viewBox="0 0 1440 560"><g mask="url(&quot;#SvgjsMask1004&quot;)" fill="none"><path d="M 0,180 C 57.6,145.4 172.8,-12.8 288,7 C 403.2,26.8 460.8,255.6 576,279 C 691.2,302.4 748.8,148 864,124 C 979.2,100 1036.8,169.2 1152,159 C 1267.2,148.8 1382.4,90.2 1440,73L1440 560L0 560z" fill="rgba(201, 220, 228, 1)"></path><path d="M 0,546 C 96,501 288,336.4 480,321 C 672,305.6 768,454.8 960,469 C 1152,483.2 1344,407.4 1440,392L1440 560L0 560z" fill="rgba(243, 248, 250, 1)"></path></g><defs><mask id="SvgjsMask1004"><rect width="1440" height="560" fill="#ffffff"></rect></mask></defs></svg>